<?xml version="1.0" standalone="no"?>
<!DOCTYPE svg PUBLIC "-//W3C//DTD SVG 20010904//EN" "http://www.w3.org/TR/2001/REC-SVG-20010904/DTD/svg10.dtd">
<svg version="1.0" xmlns="http://www.w3.org/2000/svg"
    width="512.000000pt" height="512.000000pt" viewBox="0 0 512.000000 512.000000"
    preserveAspectRatio="xMidYMid meet">

    <g transform="translate(0.000000,512.000000) scale(0.100000,-0.100000)"
        fill="#fff" stroke="none">
        <path
            d="M2436 4309 c-443 -47 -825 -369 -951 -803 -122 -423 29 -906 367
-1171 42 -33 77 -63 77 -66 1 -3 -23 -16 -51 -29 -93 -42 -230 -130 -326 -208
-261 -211 -454 -509 -538 -831 -25 -96 -54 -291 -54 -362 l0 -39 158 0 158 0
13 117 c31 303 143 550 346 762 362 379 899 499 1392 311 353 -135 634 -435
752 -804 32 -98 60 -262 61 -343 l0 -43 160 0 160 0 0 53 c0 78 -27 249 -55
355 -117 439 -439 832 -837 1020 -43 21 -77 39 -77 42 0 3 27 25 61 50 127 94
269 279 336 435 294 692 -161 1473 -906 1554 -113 12 -131 12 -246 0z m242
-319 c417 -68 705 -424 679 -840 -22 -346 -248 -625 -584 -722 -103 -30 -313
-32 -413 -5 -452 125 -702 589 -555 1034 119 360 501 593 873 533z" />
    </g>
</svg>